/* XPM */
static char * close_pressed_xpm[] = {
"11 15 2 1",
"#	c #FF0000",
" 	c #000000",
"           ",
"           ",
"           ",
"           ",
"###########",
"###########",
"## ##### ##",
"### ### ###",
"#### # ####",
"##### #####",
"#### # ####",
"### ### ###",
"## ##### ##",
"###########",
"###########"};
/* RMG 20170418 */
