/* XPM */
static char * hide_active_xpm[] = {
"11 15 2 1",
"#	c #000000",
" 	c #FFFFFF",
"###########",
"###########",
"###########",
"###########",
"           ",
" ######### ",
" #### #### ",
" #### #### ",
" ## # # ## ",
" ###   ### ",
" #### #### ",
" ######### ",
" #       # ",
" ######### ",
"           "};
/* RMG 20170418 */
