/* XPM */
static char * maximize_toggled_prelight_xpm[] = {
"11 15 2 1",
"#	c #000000",
" 	c #F57900",
"###########",
"###########",
"###########",
"###########",
"           ",
" ######### ",
" ### # ### ",
" ### # ### ",
" #   #   # ",
" ######### ",
" #   #   # ",
" ### # ### ",
" ### # ### ",
" ######### ",
"           "};
/* RMG 20170418 */
