/* XPM */
static char * maximize_pressed_xpm[] = {
"11 15 2 1",
"#	c #F57900",
" 	c #000000",
"           ",
"           ",
"           ",
"           ",
"###########",
"###########",
"##   #   ##",
"## ##### ##",
"## ##### ##",
"###########",
"## ##### ##",
"## ##### ##",
"##   #   ##",
"###########",
"###########"};
/* RMG 20170418 */
