/* XPM */
static char * shade_toggled_prelight_xpm[] = {
"11 15 2 1",
"#	c #000000",
" 	c #008000",
"###########",
"###########",
"###########",
"###########",
"           ",
" ######### ",
" # ##### # ",
" ## ### ## ",
" ### # ### ",
" # ## ## # ",
" ## ### ## ",
" ### # ### ",
" #### #### ",
" ######### ",
"           "};
/* RMG 20170418 */
