/* XPM */
static char * stick_pressed_xpm[] = {
"11 15 2 1",
"#	c #0000FF",
" 	c #000000",
"           ",
"           ",
"           ",
"           ",
"###########",
"###########",
"##       ##",
"## ##### ##",
"## #   # ##",
"## # # # ##",
"## #   # ##",
"## ##### ##",
"##       ##",
"###########",
"###########"};
/* RMG 20170418 */
