/* XPM */
static char * stick_toggled_prelight_xpm[] = {
"11 15 2 1",
"#	c #000000",
" 	c #0000FF",
"###########",
"###########",
"###########",
"###########",
"           ",
" ######### ",
" #       # ",
" #       # ",
" #       # ",
" #       # ",
" #       # ",
" #       # ",
" #       # ",
" ######### ",
"           "};
/* RMG 20170418 */
