/* XPM */
static char * top_left_inactive_xpm[] = {
"11 27 2 1",
"#	c #000000",
" 	c None",
"           ",
"           ",
"           ",
"           ",
"           ",
"     ######",
"     ######",
"     ######",
"     ######",
"     ######",
"     ######",
"     ######",
"     ######",
"     ######",
"     ######",
"     ######",
"     ######",
"     ######",
"     ######",
"     ######",
"     ######",
"     ######",
"     ######",
"     ######",
"     ######",
"     ######",
"     ######"};
/* RMG 20170401 */
