/* XPM */
static char * hide_pressed_xpm[] = {
"11 15 2 1",
"#	c #FFFF00",
" 	c #000000 s active_color_2",
"           ",
"           ",
"           ",
"           ",
"###########",
"###########",
"##### #####",
"##### #####",
"### # # ###",
"####   ####",
"##### #####",
"###########",
"##       ##",
"###########",
"###########"};
/* RMG 20170418 */
