/* XPM */
static char * maximize_toggled_pressed_xpm[] = {
"11 15 2 1",
"#	c #F57900",
" 	c #000000 s active_color_2",
"           ",
"           ",
"           ",
"           ",
"###########",
"###########",
"#### # ####",
"#### # ####",
"##   #   ##",
"###########",
"##   #   ##",
"#### # ####",
"#### # ####",
"###########",
"###########"};
/* RMG 20170418 */
