/* XPM */
static char * menu_active_xpm[] = {
"11 15 2 1",
"#	c #000000 s active_text_color_2",
" 	c #999999 s active_color_2",
"           ",
"           ",
"           ",
"           ",
"###########",
"###########",
"##   #   ##",
"###########",
"##   #   ##",
"###########",
"##   #   ##",
"###########",
"##   #   ##",
"###########",
"###########"};
/* RMG 20170418 */
