/* XPM */
static char * menu_prelight_xpm[] = {
"11 15 2 1",
"#	c #000000 s active_color_2",
" 	c #800080",
"###########",
"###########",
"###########",
"###########",
"###########",
"###########",
"##   #   ##",
"###########",
"##   #   ##",
"###########",
"##   #   ##",
"###########",
"##   #   ##",
"###########",
"###########"};
/* RMG 20170418 */
