/* XPM */
static char * shade_inactive_xpm[] = {
"11 15 2 1",
"#	c #000000 s inactive_text_color_2",
" 	c #999999 s inactive_color_2",
"           ",
"           ",
"           ",
"           ",
"###########",
"###########",
"##### #####",
"#### # ####",
"### ### ###",
"## ## ## ##",
"#### # ####",
"### ### ###",
"## ##### ##",
"###########",
"###########"};
/* RMG 20170418 */
