/* XPM */
static char * top_right_active_xpm[] = {
"11 27 2 1",
"#	c #000000 s active_color_2",
" 	c None",
"           ",
"           ",
"           ",
"           ",
"           ",
"######     ",
"######     ",
"######     ",
"######     ",
"######     ",
"######     ",
"######     ",
"######     ",
"######     ",
"######     ",
"######     ",
"######     ",
"######     ",
"######     ",
"######     ",
"######     ",
"######     ",
"######     ",
"######     ",
"######     ",
"######     ",
"######     "};
/* RMG 20170401 */
