/* XPM */
static char * bottom_right_active_xpm[] = {
"11 11 2 1",
"#	c #000000 s active_color_2",
" 	c None",
"######     ",
"######     ",
"######     ",
"######     ",
"######     ",
"######     ",
"           ",
"           ",
"           ",
"           ",
"           "};
/* RMG 20170403 */
