/* XPM */
static char * right_active_xpm[] = {
"11 1 2 1",
"#	c #000000 s active_color_2",
" 	c None",
"######     "};
/* RMG 20170403 */

