/* XPM */
static char * bottom_inactive_xpm[] = {
"1 11 2 1",
"#	c #000000",
" 	c None",
"#",
"#",
"#",
"#",
"#",
"#",
" ",
" ",
" ",
" ",
" "},
/* RMG 20170403 */
