/* XPM */
static char * bottom_left_inactive_xpm[] = {
"11 11 2 1",
"#	c #000000",
" 	c None",
"     ######",
"     ######",
"     ######",
"     ######",
"     ######",
"     ######",
"           ",
"           ",
"           ",
"           ",
"           "};
/* RMG 20170403 */
