/* XPM */
static char * title_3_active_xpm[] = {
"1 11 2 1",
"#	c #000000",
" 	c None",
" ",
" ",
" ",
" ",
" ",
"#",
"#",
"#",
"#",
"#",
"#"};
/* RMG 20170403 */
