/* XPM */
static char * title_5_inactive_xpm[] = {
"1 24 3 1",
"#	c #000000 s inactive_color_2",
"@	c #999999 s inactive_text_color_2",
" 	c None",
" ",
" ",
" ",
" ",
"@",
"#",
"#",
"#",
"#",
"#",
"#",
"#",
"#",
"#",
"#",
"#",
"#",
"#",
"#",
"#",
"#",
"#",
"#",
"@"};
/* RMG 20170418 */
